<svg width="38" height="37" viewBox="0 0 38 37" fill="none" xmlns="http://www.w3.org/2000/svg">
<path d="M15.8333 23.8958H22.1667C22.3915 23.8958 22.5794 23.8218 22.7303 23.6738C22.8813 23.5258 22.9573 23.3429 22.9583 23.125V20.8125H21.375V22.3542H16.625V14.6458H21.375V16.1875H22.9583V13.875C22.9583 13.6551 22.8823 13.4716 22.7303 13.3246C22.5783 13.1777 22.3904 13.1042 22.1667 13.1042H15.8333C15.6085 13.1042 15.4206 13.1782 15.2697 13.3262C15.1187 13.4742 15.0427 13.6571 15.0417 13.875V23.125C15.0417 23.3439 15.1177 23.5269 15.2697 23.6738C15.4217 23.8208 15.6096 23.8948 15.8333 23.8958ZM19.0048 32.375C17.034 32.375 15.1815 32.0112 13.4473 31.2835C11.713 30.5548 10.2041 29.5661 8.9205 28.3173C7.63694 27.0686 6.62097 25.6009 5.87258 23.9143C5.12419 22.2278 4.75 20.4245 4.75 18.5046C4.75 16.5847 5.12419 14.781 5.87258 13.0934C6.61992 11.4047 7.63378 9.93553 8.91417 8.68575C10.1946 7.43597 11.7024 6.44674 13.4378 5.71804C15.1731 4.98935 17.0256 4.625 18.9952 4.625C20.9649 4.625 22.8174 4.98935 24.5528 5.71804C26.287 6.44571 27.7959 7.4334 29.0795 8.68113C30.3631 9.92885 31.379 11.397 32.1274 13.0857C32.8758 14.7743 33.25 16.5775 33.25 18.4954C33.25 20.4132 32.8763 22.217 32.129 23.9066C31.3817 25.5963 30.3662 27.0655 29.0827 28.3143C27.7991 29.563 26.2918 30.5522 24.5607 31.282C22.8296 32.0117 20.9776 32.376 19.0048 32.375ZM19 30.8333C22.5361 30.8333 25.5312 29.6385 27.9854 27.249C30.4396 24.8594 31.6667 21.9431 31.6667 18.5C31.6667 15.0569 30.4396 12.1406 27.9854 9.75104C25.5312 7.36146 22.5361 6.16667 19 6.16667C15.4639 6.16667 12.4687 7.36146 10.0146 9.75104C7.56042 12.1406 6.33333 15.0569 6.33333 18.5C6.33333 21.9431 7.56042 24.8594 10.0146 27.249C12.4687 29.6385 15.4639 30.8333 19 30.8333Z" fill="white"/>
</svg>
