<svg width="28" height="27" viewBox="0 0 28 27" fill="none" xmlns="http://www.w3.org/2000/svg">
<g clip-path="url(#clip0_44_23)">
<path d="M14 -0.0276985C6.26411 -0.0276985 -0.0306396 5.8313 -0.0306396 13.0345C-0.0306396 20.2377 6.26411 26.0967 14 26.0967C21.7359 26.0967 28.0306 20.2377 28.0306 13.0345C28.0306 5.8313 21.7359 -0.0276985 14 -0.0276985ZM14 25.2266C6.77949 25.2266 0.90561 19.757 0.90561 13.0345C0.90561 6.31195 6.77949 0.842353 14 0.842353C21.2205 0.842353 27.0944 6.31195 27.0944 13.0345C27.0944 19.757 21.2205 25.2266 14 25.2266Z" fill="white"/>
<path d="M17.0625 5.70259H14.728C11.7548 5.67489 11.375 7.38811 11.375 9.24226V10.5905H10.0625C10.0032 10.5831 9.94284 10.5886 9.88614 10.6065C9.82945 10.6243 9.77795 10.6541 9.73563 10.6935C9.69331 10.7329 9.66131 10.7809 9.64213 10.8336C9.62294 10.8864 9.61709 10.9426 9.62501 10.9978V13.4418C9.61709 13.497 9.62294 13.5532 9.64213 13.606C9.66131 13.6588 9.69331 13.7067 9.73563 13.7462C9.77795 13.7856 9.82945 13.8153 9.88614 13.8332C9.94284 13.8511 10.0032 13.8565 10.0625 13.8491H11.375V19.9591C11.3679 20.0143 11.3744 20.0704 11.394 20.123C11.4137 20.1756 11.446 20.2234 11.4884 20.2627C11.5308 20.3019 11.5823 20.3317 11.6389 20.3496C11.6955 20.3676 11.7558 20.3733 11.8151 20.3664H14.4883C14.7464 20.3941 14.9555 20.1994 14.8733 19.9591L14.875 13.8491H17.0625C17.1218 13.8565 17.1822 13.8511 17.2389 13.8332C17.2956 13.8153 17.3471 13.7856 17.3894 13.7462C17.4317 13.7067 17.4637 13.6588 17.4829 13.606C17.5021 13.5532 17.5079 13.497 17.5 13.4418V10.9978C17.5079 10.9426 17.5021 10.8864 17.4829 10.8336C17.4637 10.7809 17.4317 10.7329 17.3894 10.6935C17.3471 10.6541 17.2956 10.6243 17.2389 10.6065C17.1822 10.5886 17.1218 10.5831 17.0625 10.5905H14.8724L14.875 9.36853C14.9599 8.84797 14.9599 8.93269 15.4788 8.96121H17.0441C17.1658 8.93595 17.2953 8.9498 17.3863 8.86752C17.4773 8.78524 17.5298 8.67282 17.4991 8.55388V6.10991C17.5072 6.05473 17.5015 5.99855 17.4824 5.94576C17.4633 5.89297 17.4314 5.84499 17.3892 5.80557C17.3469 5.76615 17.2955 5.73634 17.2388 5.71848C17.1821 5.70062 17.1218 5.69518 17.0625 5.70259ZM16.5944 8.10093L15.4971 8.06183C14.1383 8.06183 14.0245 8.74858 14.0245 9.45163L14.021 10.9962C14.0209 11.0534 14.0329 11.1101 14.0563 11.1629C14.0798 11.2158 14.1142 11.2639 14.1576 11.3044C14.201 11.3448 14.2525 11.377 14.3092 11.3989C14.366 11.4208 14.4268 11.4321 14.4883 11.4321H16.625V13.006H14.49C14.366 13.006 14.2471 13.0518 14.1593 13.1333C14.0715 13.2149 14.0221 13.3255 14.0219 13.441L14.021 19.5517H12.25V13.4418C12.25 13.2015 12.0741 13.0068 11.8151 13.0068H10.5V11.4329H11.8151C11.8766 11.4331 11.9374 11.422 11.9942 11.4002C12.051 11.3784 12.1025 11.3463 12.1459 11.3058C12.2334 11.2235 12.2491 11.1127 12.2491 10.997V9.24145C12.2491 7.41499 12.6455 6.54494 14.7271 6.54494H16.5935L16.5944 8.10093Z" fill="white"/>
</g>
<defs>
<clipPath id="clip0_44_23">
<rect width="28" height="26.069" fill="white"/>
</clipPath>
</defs>
</svg>
