<svg width="47" height="41" viewBox="0 0 47 41" fill="none" xmlns="http://www.w3.org/2000/svg">
<g clip-path="url(#clip0_70_2)">
<path d="M16.3729 1.34852C11.6769 2.76964 7.62701 5.46699 4.8182 9.04435C2.00939 12.6217 0.589674 16.8905 0.76758 21.2238C0.945486 25.5571 2.71164 29.7263 5.80662 33.1193C8.9016 36.5122 13.1623 38.9499 17.9628 40.0743C21.8547 40.9503 25.9323 40.9888 29.845 40.1864C33.3895 39.4919 36.6665 38.0062 39.3552 35.875C42.1534 33.5891 44.1845 30.6811 45.2302 27.4636C46.3667 23.9647 46.5689 20.2852 45.8213 16.7075H23.9663V24.616H36.6233C36.3703 25.8774 35.8283 27.0812 35.0295 28.1556C34.2308 29.2299 33.1918 30.1526 31.9747 30.8685C30.4291 31.7604 28.6869 32.3604 26.8598 32.6302C25.0273 32.9275 23.1477 32.9275 21.3152 32.6302C19.458 32.2953 17.701 31.6266 16.1563 30.6667C13.6746 29.1343 11.8112 26.9573 10.832 24.4463C9.83628 21.8882 9.83628 19.115 10.832 16.557C11.5291 14.7639 12.6813 13.1313 14.2028 11.7811C15.944 10.2076 18.1484 9.08277 20.5741 8.53017C22.9998 7.97756 25.5532 8.01848 27.954 8.64844C29.8295 9.15066 31.5445 10.0281 32.9624 11.2109C34.3896 9.9724 35.8142 8.73065 37.2365 7.4857C37.9709 6.81625 38.7713 6.17883 39.4947 5.49336C37.3304 3.73637 34.7898 2.36922 32.0188 1.47024C26.9725 -0.128156 21.451 -0.171111 16.3729 1.34852Z" fill="white"/>
<path d="M16.3729 1.34852C21.4506 -0.172144 26.9721 -0.130319 32.0187 1.46703C34.7903 2.37212 37.3297 3.74586 39.491 5.50938C38.7566 6.19485 37.9819 6.83547 37.2328 7.50172C35.8081 8.7424 34.3846 9.9788 32.9624 11.2109C31.5445 10.0281 29.8295 9.15066 27.954 8.64844C25.5539 8.01627 23.0007 7.97299 20.5743 8.52333C18.1479 9.07368 15.9422 10.1964 14.1991 11.7683C12.6776 13.1185 11.5254 14.7511 10.8283 16.5441L3.21655 11.4031C5.94111 6.68992 10.6585 3.08469 16.3729 1.34852Z" fill="#E33629"/>
<path d="M1.197 16.4961C1.60613 14.7273 2.28536 13.0144 3.21653 11.4031L10.8283 16.557C9.83257 19.115 9.83257 21.8882 10.8283 24.4462C8.29229 26.1546 5.75502 27.8715 3.21653 29.5969C0.885445 25.5491 0.174504 20.9372 1.197 16.4961Z" fill="#F8BD00"/>
<path d="M23.9664 16.7043H45.8214C46.5689 20.282 46.3667 23.9615 45.2302 27.4604C44.1846 30.6779 42.1534 33.5859 39.3552 35.8718C36.8987 34.1998 34.4312 32.5406 31.9747 30.8685C33.1926 30.1519 34.2321 29.2282 35.0309 28.1527C35.8296 27.0772 36.3713 25.8721 36.6233 24.6096H23.9664C23.9627 21.9766 23.9664 19.3405 23.9664 16.7043Z" fill="#587DBD"/>
<path d="M3.21289 29.5969C5.75138 27.8885 8.28865 26.1717 10.8247 24.4463C11.8058 26.9581 13.6719 29.1353 16.1562 30.6667C17.7058 31.6221 19.4666 32.2854 21.3263 32.6142C23.1587 32.9115 25.0383 32.9115 26.8708 32.6142C28.6979 32.3444 30.4401 31.7443 31.9857 30.8525C34.4422 32.5245 36.9097 34.1838 39.3662 35.8558C36.678 37.9882 33.4009 39.4749 29.856 40.1704C25.9433 40.9728 21.8657 40.9343 17.9738 40.0583C14.8957 39.3413 12.0205 38.0775 9.52852 36.3459C6.89087 34.5191 4.73655 32.2169 3.21289 29.5969Z" fill="#319F43"/>
</g>
<defs>
<clipPath id="clip0_70_2">
<rect width="47" height="41" fill="white"/>
</clipPath>
</defs>
</svg>
