<svg width="28" height="28" viewBox="0 0 28 28" fill="none" xmlns="http://www.w3.org/2000/svg">
<g clip-path="url(#clip0_44_27)">
<path d="M17.0757 10.458C16.4824 10.458 16.0432 10.6076 15.6993 10.7966C15.6442 10.6006 15.463 10.4571 15.2495 10.5H12.6385C12.3804 10.4571 12.1713 10.6662 12.2509 10.9375V20.5625C12.1713 20.8075 12.3804 21.0175 12.6385 21H15.2495C15.5077 21.0175 15.7168 20.8075 15.7168 20.5494L15.7159 14.7324C15.715 14.7297 15.7054 14.4515 15.8813 14.2599C16.0222 14.1076 16.2645 14.0297 16.5997 14.0297C17.1579 14.0297 17.4064 14.2581 17.4992 14.7691V20.5494C17.4073 20.8075 17.6164 21.0175 17.8745 21H20.6264C20.8845 21.0175 21.0937 20.8075 21.0009 20.5494V14.5749C21.0928 11.5369 18.9289 10.458 17.0757 10.458ZM20.1583 20.125H18.3418V14.7691C18.3418 13.7357 17.6742 13.0952 16.6005 13.0952C15.9933 13.0952 15.5208 13.2737 15.1953 13.6255C14.7429 14.1155 14.7779 14.7367 14.875 14.875V20.125H13.1058V11.3925H14.7823V11.6865C14.7816 11.7741 14.8056 11.8601 14.8516 11.9346C14.8976 12.0091 14.9637 12.0692 15.0423 12.1078C15.1209 12.1465 15.2088 12.1622 15.2959 12.1531C15.383 12.1441 15.4658 12.1106 15.5348 12.0566L15.6573 11.9621C16.0117 11.683 16.3783 11.3934 17.0765 11.3934C17.7993 11.3934 20.1592 11.6235 20.1592 14.5758L20.1583 20.125ZM9.62503 6.09525C8.64328 6.09525 7.84528 6.89325 7.84528 7.875C7.84528 8.85675 8.64328 9.65475 9.62503 9.65475C10.6068 9.65475 11.4048 8.85675 11.4048 7.875C11.4048 6.89325 10.6068 6.09525 9.62503 6.09525ZM9.62503 8.72025C9.15953 8.72025 8.77978 8.3405 8.77978 7.875C8.77978 7.4095 9.15953 7.02975 9.62503 7.02975C10.0905 7.02975 10.4703 7.4095 10.4703 7.875C10.4703 8.3405 10.0905 8.72025 9.62503 8.72025ZM10.8745 10.4571H8.27753C8.0194 10.4571 7.81028 10.6662 7.87503 10.9375V20.5625C7.81028 20.8075 8.0194 21.0175 8.27753 21H10.8745C11.1327 21.0175 11.3418 20.8075 11.3418 20.5494V10.9244C11.3418 10.8005 11.2925 10.6816 11.2049 10.594C11.1173 10.5064 10.9984 10.4571 10.8745 10.4571ZM10.5 20.125H8.74478V11.3925H10.5V20.125Z" fill="white"/>
<path d="M14 -0.0297508C6.26328 -0.0297508 -0.0297241 6.26325 -0.0297241 14C-0.0297241 21.7367 6.26328 28.0297 14 28.0297C21.7368 28.0297 28.0298 21.7367 28.0298 14C28.0298 6.26325 21.7368 -0.0297508 14 -0.0297508ZM14 27.0952C6.77953 27.0952 0.904776 21.2205 0.904776 14C0.904776 6.7795 6.77953 0.904749 14 0.904749C21.2205 0.904749 27.0953 6.7795 27.0953 14C27.0953 21.2205 21.2205 27.0952 14 27.0952Z" fill="white"/>
</g>
<defs>
<clipPath id="clip0_44_27">
<rect width="28" height="28" fill="white"/>
</clipPath>
</defs>
</svg>
