<svg width="29" height="28" viewBox="0 0 29 28" fill="none" xmlns="http://www.w3.org/2000/svg">
<g clip-path="url(#clip0_44_19)">
<path d="M14.5 -0.0297508C6.48785 -0.0297508 -0.0317078 6.26325 -0.0317078 14C-0.0317078 21.7367 6.48785 28.0297 14.5 28.0297C22.5122 28.0297 29.0317 21.7367 29.0317 14C29.0317 6.26325 22.5122 -0.0297508 14.5 -0.0297508ZM14.5 27.0952C7.02164 27.0952 0.93798 21.2205 0.93798 14C0.93798 6.7795 7.02164 0.904749 14.5 0.904749C21.9784 0.904749 28.062 6.7795 28.062 14C28.062 21.2205 21.9784 27.0952 14.5 27.0952Z" fill="white"/>
<path d="M22.4696 9.66525C22.5702 9.48566 22.6531 9.29728 22.717 9.10262C22.7466 9.01236 22.7472 8.91553 22.7187 8.82493C22.6902 8.73432 22.6338 8.65421 22.5572 8.59515C22.4805 8.5361 22.3871 8.50089 22.2892 8.49416C22.1914 8.48744 22.0938 8.50952 22.0092 8.5575C21.545 8.82424 21.0423 9.02271 20.5175 9.14637C19.8807 8.59135 19.0536 8.28369 18.1957 8.28275C17.7296 8.28309 17.2684 8.3743 16.8397 8.5509C16.4111 8.7275 16.0237 8.98586 15.701 9.31049C15.3782 9.63511 15.1267 10.0193 14.9614 10.4401C14.7961 10.8608 14.7206 11.3095 14.7393 11.7591C12.7011 11.5115 10.8399 10.5157 9.54191 8.97837C9.49218 8.92014 9.42862 8.87435 9.35663 8.8449C9.28465 8.81545 9.20637 8.80322 9.12844 8.80923C9.05051 8.81524 8.97523 8.83933 8.90901 8.87944C8.84278 8.91955 8.78756 8.9745 8.74803 9.03962C8.45056 9.5321 8.28886 10.09 8.27838 10.66C8.26791 11.2301 8.40902 11.7931 8.68822 12.2955C8.61966 12.3061 8.55382 12.3293 8.49428 12.3637C8.42095 12.4088 8.36058 12.471 8.31876 12.5446C8.27694 12.6181 8.25502 12.7007 8.25503 12.7846C8.25503 13.7777 8.71269 14.6895 9.45038 15.309L9.41866 15.3396C9.36265 15.4003 9.32413 15.4741 9.30695 15.5536C9.28977 15.6332 9.29454 15.7157 9.32078 15.7929C9.47483 16.2561 9.73176 16.6813 10.0736 17.0387C10.4155 17.3961 10.834 17.6772 11.3 17.8622C10.3427 18.3134 9.27127 18.4892 8.21335 18.3689C8.1046 18.3582 7.99525 18.3826 7.90243 18.4383C7.80961 18.4941 7.73856 18.578 7.70041 18.6769C7.66378 18.7765 7.66309 18.8852 7.69846 18.9852C7.73383 19.0853 7.80318 19.1709 7.89525 19.2281C9.33346 20.1194 11.0066 20.5929 12.7156 20.5922C18.3162 20.5922 21.6639 16.1997 21.6639 11.9534L21.663 11.8099C22.206 11.401 22.6775 10.9106 23.0595 10.3574C23.1174 10.2738 23.1459 10.1744 23.1407 10.074C23.1356 9.97352 23.097 9.87736 23.0308 9.79971C22.9647 9.72207 22.8743 9.66706 22.7732 9.64284C22.6721 9.61863 22.5657 9.62648 22.4696 9.66525ZM20.8882 11.2009C20.8227 11.2468 20.7701 11.3077 20.7349 11.3781C20.6998 11.4485 20.6833 11.5262 20.687 11.6042C20.6924 11.7203 20.6951 11.8364 20.6951 11.9525C20.6951 15.7395 17.7108 19.6569 12.7165 19.6569C11.8258 19.6566 10.9415 19.5123 10.1002 19.2299C11.1073 19.0426 12.0534 18.6256 12.8597 18.0136C12.9381 17.9539 12.9956 17.8723 13.0241 17.7798C13.0527 17.6874 13.051 17.5887 13.0192 17.4973C12.9875 17.4058 12.9273 17.3261 12.8468 17.2689C12.7663 17.2118 12.6696 17.18 12.5697 17.178C12.1789 17.1709 11.7953 17.0752 11.4499 16.8986C11.1045 16.722 10.807 16.4694 10.5814 16.1612C10.811 16.1461 11.0351 16.1099 11.2538 16.0528C11.3595 16.0254 11.4525 15.9643 11.5176 15.8794C11.5827 15.7945 11.6161 15.6908 11.6123 15.5852C11.6086 15.4796 11.5678 15.3784 11.4968 15.298C11.4257 15.2177 11.3286 15.1629 11.2212 15.1427C10.7798 15.0562 10.3712 14.8553 10.039 14.5617C9.70676 14.2681 9.46352 13.8927 9.33528 13.4759C9.57695 13.5348 9.82224 13.5683 10.0712 13.5765C10.2841 13.5756 10.4817 13.4496 10.5478 13.2519C10.614 13.0541 10.5361 12.8362 10.3557 12.7207C9.9297 12.4461 9.60169 12.0513 9.41634 11.5902C9.23099 11.1292 9.19731 10.6241 9.31988 10.1439C10.8939 11.7036 13.0196 12.6323 15.2721 12.7444C15.4316 12.7452 15.5712 12.6901 15.6682 12.5772C15.7651 12.4644 15.8023 12.3147 15.7678 12.1712C15.6439 11.6559 15.6993 11.1154 15.9256 10.6335C16.1518 10.1516 16.5363 9.75519 17.0194 9.50551C17.5025 9.25584 18.0574 9.16687 18.5982 9.25237C19.139 9.33787 19.6355 9.59308 20.0109 9.9785C20.0674 10.0361 20.1381 10.0791 20.2163 10.1034C20.2946 10.1277 20.3779 10.1326 20.4586 10.1176C20.6084 10.0885 20.7561 10.0549 20.9018 10.017C20.8356 10.064 20.7672 10.1081 20.6969 10.1491C20.603 10.2047 20.5314 10.2895 20.4941 10.3896C20.4567 10.4898 20.4558 10.5992 20.4915 10.6998C20.5271 10.8005 20.5973 10.8865 20.6903 10.9435C20.7833 11.0005 20.8937 11.0253 21.0033 11.0136L21.1682 10.9935C21.0772 11.0655 20.9838 11.1347 20.8882 11.2009Z" fill="white"/>
</g>
<defs>
<clipPath id="clip0_44_19">
<rect width="29" height="28" fill="white"/>
</clipPath>
</defs>
</svg>
