<svg width="28" height="28" viewBox="0 0 28 28" fill="none" xmlns="http://www.w3.org/2000/svg">
<circle cx="14" cy="14" r="13.5" stroke="white"/>
<path d="M15.7103 13.5302L12.8065 11.8582C12.636 11.7601 12.4427 11.7085 12.2459 11.7086C12.0492 11.7087 11.856 11.7606 11.6856 11.859C11.5153 11.9574 11.3738 12.0989 11.2754 12.2693C11.177 12.4396 11.1251 12.6329 11.125 12.8296V16.172C11.1226 16.5726 11.3364 16.9431 11.6839 17.141C11.8543 17.2405 12.048 17.2931 12.2454 17.2934C12.4427 17.2937 12.6366 17.2416 12.8073 17.1426L15.7103 15.4706C15.8809 15.3725 16.0225 15.2313 16.121 15.061C16.2195 14.8907 16.2714 14.6975 16.2714 14.5008C16.2714 14.3041 16.2195 14.1108 16.121 13.9406C16.0225 13.7703 15.8809 13.629 15.7103 13.531M15.3145 14.7834L12.4122 16.4562C12.362 16.486 12.3048 16.5018 12.2464 16.5018C12.188 16.5018 12.1307 16.486 12.0805 16.4562C12.0302 16.4275 11.9884 16.3859 11.9596 16.3357C11.9308 16.2854 11.916 16.2283 11.9166 16.1704V12.8296C11.9163 12.7719 11.9312 12.7152 11.96 12.6653C11.9888 12.6153 12.0304 12.5739 12.0805 12.5454C12.1303 12.5149 12.1876 12.4987 12.246 12.4987C12.3044 12.4987 12.3616 12.5149 12.4114 12.5454L15.3145 14.2182C15.3645 14.2464 15.4062 14.2875 15.4352 14.3372C15.4642 14.3868 15.4794 14.4433 15.4794 14.5008C15.4794 14.5583 15.4642 14.6148 15.4352 14.6644C15.4062 14.7141 15.3645 14.7551 15.3145 14.7834ZM19.0416 8.16667H7.95831C7.32862 8.1673 6.72489 8.41772 6.27963 8.86298C5.83437 9.30825 5.58394 9.91197 5.58331 10.5417V18.4583C5.58394 19.088 5.83437 19.6918 6.27963 20.137C6.72489 20.5823 7.32862 20.8327 7.95831 20.8333H19.0416C19.6713 20.8327 20.2751 20.5823 20.7203 20.137C21.1656 19.6918 21.416 19.088 21.4166 18.4583V10.5417C21.416 9.91197 21.1656 9.30825 20.7203 8.86298C20.2751 8.41772 19.6713 8.1673 19.0416 8.16667ZM20.625 18.4583C20.6244 18.8781 20.4573 19.2804 20.1605 19.5772C19.8637 19.874 19.4614 20.041 19.0416 20.0417H7.95831C7.53858 20.041 7.13622 19.874 6.83942 19.5772C6.54262 19.2804 6.37561 18.8781 6.37498 18.4583V10.5417C6.37561 10.1219 6.54262 9.71957 6.83942 9.42278C7.13622 9.12598 7.53858 8.95896 7.95831 8.95833H19.0416C19.4614 8.95896 19.8637 9.12598 20.1605 9.42278C20.4573 9.71957 20.6244 10.1219 20.625 10.5417V18.4583Z" fill="white"/>
</svg>
